<?xml version="1.0" encoding="UTF-8"?> <!-- Generator: Adobe Illustrator 16.0.1, SVG Export Plug-In . SVG Version: 6.00 Build 0) --> <svg xmlns="http://www.w3.org/2000/svg" xmlns:xlink="http://www.w3.org/1999/xlink" id="Layer_1" x="0px" y="0px" width="200px" height="50px" viewBox="0 0 200 50" xml:space="preserve"> <path fill="#231F20" d="M10.952,16.749v5.88h5.699v-5.88h3.451v15.303h-3.451v-6.403h-5.699v6.403H7.478V16.749H10.952z"></path> <path fill="#231F20" d="M26.255,32.052v-6.267l-4.836-9.037h3.951l1.566,3.678c0.477,1.112,0.795,1.93,1.181,2.929h0.045 c0.34-0.953,0.704-1.839,1.158-2.929l1.544-3.678h3.883l-5.041,8.923v6.38H26.255z"></path> <path fill="#231F20" d="M35.996,16.953c1.067-0.182,2.565-0.318,4.677-0.318c2.134,0,3.656,0.409,4.677,1.227 c0.977,0.771,1.635,2.043,1.635,3.542c0,1.498-0.5,2.77-1.408,3.633c-1.181,1.112-2.929,1.612-4.972,1.612 c-0.454,0-0.863-0.023-1.181-0.068v5.472h-3.429V16.953z M39.425,23.9c0.295,0.068,0.658,0.091,1.158,0.091 c1.839,0,2.974-0.931,2.974-2.497c0-1.408-0.976-2.248-2.702-2.248c-0.704,0-1.181,0.068-1.43,0.136V23.9z"></path> <path fill="#231F20" d="M58.293,25.581h-5.631v3.633h6.289v2.838h-9.763V16.749h9.445v2.838h-5.971v3.179h5.631V25.581z"></path> <path fill="#231F20" d="M61.313,16.953c1.112-0.182,2.77-0.318,4.609-0.318c2.271,0,3.859,0.341,4.949,1.204 c0.908,0.727,1.408,1.793,1.408,3.202c0,1.952-1.385,3.292-2.702,3.769v0.068c1.067,0.432,1.657,1.453,2.043,2.861 c0.477,1.725,0.954,3.723,1.249,4.313h-3.542c-0.25-0.432-0.613-1.681-1.067-3.564c-0.409-1.907-1.067-2.43-2.475-2.452h-1.044 v6.017h-3.429V16.953z M64.741,23.537h1.362c1.726,0,2.747-0.862,2.747-2.202c0-1.408-0.954-2.111-2.543-2.134 c-0.84,0-1.317,0.068-1.566,0.114V23.537z"></path> <path fill="#231F20" d="M78.251,16.749v15.303h-3.474V16.749H78.251z"></path> <path fill="#231F20" d="M92.486,31.62c-0.636,0.318-2.066,0.659-3.928,0.659c-5.29,0-8.015-3.293-8.015-7.652 c0-5.222,3.724-8.128,8.355-8.128c1.793,0,3.156,0.363,3.769,0.681l-0.704,2.748c-0.704-0.295-1.68-0.568-2.906-0.568 c-2.748,0-4.881,1.658-4.881,5.063c0,3.065,1.816,4.995,4.904,4.995c1.044,0,2.202-0.227,2.883-0.5L92.486,31.62z"></path> <path fill="#231F20" d="M98.208,16.749v8.81c0,2.633,0.999,3.973,2.77,3.973c1.817,0,2.815-1.271,2.815-3.973v-8.81h3.451v8.583 c0,4.723-2.384,6.971-6.38,6.971c-3.859,0-6.13-2.135-6.13-7.016v-8.537H98.208z"></path> <path fill="#231F20" d="M123.184,26.193c-0.068-1.839-0.137-4.063-0.137-6.289h-0.067c-0.478,1.953-1.112,4.133-1.703,5.926 l-1.862,5.971h-2.701l-1.635-5.926c-0.5-1.794-1.021-3.974-1.385-5.972h-0.046c-0.091,2.066-0.159,4.428-0.272,6.335l-0.272,5.813 h-3.201l0.976-15.303h4.609l1.499,5.109c0.477,1.771,0.953,3.678,1.294,5.472h0.068c0.432-1.771,0.953-3.792,1.453-5.495 l1.635-5.086h4.518l0.841,15.303h-3.384L123.184,26.193z"></path> <path fill="#231F20" d="M137.511,16.749v15.303h-3.474V16.749H137.511z"></path> <path fill="#231F20" d="M153.449,26.193c-0.068-1.839-0.137-4.063-0.137-6.289h-0.067c-0.478,1.953-1.112,4.133-1.703,5.926 l-1.862,5.971h-2.701l-1.635-5.926c-0.5-1.794-1.021-3.974-1.385-5.972h-0.046c-0.091,2.066-0.159,4.428-0.272,6.335l-0.272,5.813 h-3.201l0.976-15.303h4.609l1.499,5.109c0.477,1.771,0.953,3.678,1.294,5.472h0.068c0.432-1.771,0.953-3.792,1.453-5.495 l1.635-5.086h4.518l0.841,15.303h-3.384L153.449,26.193z"></path> <path fill="#231F20" d="M159.717,16.953c1.066-0.182,2.565-0.318,4.677-0.318c2.134,0,3.655,0.409,4.677,1.227 c0.977,0.771,1.635,2.043,1.635,3.542c0,1.498-0.499,2.77-1.407,3.633c-1.181,1.112-2.929,1.612-4.973,1.612 c-0.454,0-0.862-0.023-1.181-0.068v5.472h-3.428V16.953z M163.145,23.9c0.295,0.068,0.658,0.091,1.158,0.091 c1.839,0,2.975-0.931,2.975-2.497c0-1.408-0.977-2.248-2.702-2.248c-0.704,0-1.181,0.068-1.431,0.136V23.9z"></path> <path fill="#231F20" d="M182.013,25.581h-5.631v3.633h6.289v2.838h-9.763V16.749h9.445v2.838h-5.972v3.179h5.631V25.581z"></path> <path fill="#231F20" d="M193.093,32.052l-1.385-2.771c-0.567-1.066-0.931-1.861-1.362-2.747h-0.045 c-0.318,0.886-0.704,1.681-1.182,2.747l-1.271,2.771h-3.95l4.428-7.742l-4.269-7.561h3.973l1.34,2.792 c0.454,0.931,0.795,1.681,1.158,2.543h0.045c0.363-0.976,0.659-1.657,1.045-2.543l1.294-2.792h3.951l-4.314,7.47l4.541,7.833 H193.093z"></path> </svg> 
